<svg xmlns="http://www.w3.org/2000/svg" width="140.549" height="140" viewBox="0 0 140.549 140"><defs><style>.a{fill:#ffda0d;}.b{fill:#1b4d92;}</style></defs><g transform="translate(-1038 -969.365)"><circle class="a" cx="42" cy="42" r="42" transform="translate(1075 997)"/><g transform="translate(1038 969.365)"><path class="b" d="M139.731,155.093a98.666,98.666,0,0,0-32.3-26.224A82.778,82.778,0,0,0,70.8,120c-.176,0-.352,0-.528,0s-.352,0-.528,0a82.778,82.778,0,0,0-36.633,8.866A98.7,98.7,0,0,0,.818,155.09a2.778,2.778,0,0,0,0,3.938,98.7,98.7,0,0,0,32.3,26.221,82.778,82.778,0,0,0,36.633,8.866c.176,0,.352,0,.528,0s.352,0,.528,0a82.778,82.778,0,0,0,36.633-8.866,98.67,98.67,0,0,0,32.384-26.331,2.765,2.765,0,0,0,.73-1.869A2.735,2.735,0,0,0,139.731,155.093ZM35.56,180.334A92.584,92.584,0,0,1,6.328,157.059,92.584,92.584,0,0,1,35.56,133.783a81.619,81.619,0,0,1,9.75-4.093,37.013,37.013,0,0,0,0,54.737A81.622,81.622,0,0,1,35.56,180.334Zm34.715,8.293a31.569,31.569,0,1,1,31.569-31.569A31.6,31.6,0,0,1,70.274,188.627Zm34.715-8.293a81.622,81.622,0,0,1-9.75,4.093,37.013,37.013,0,0,0,0-54.737,81.619,81.619,0,0,1,9.75,4.093,92.584,92.584,0,0,1,29.232,23.275A92.584,92.584,0,0,1,104.989,180.334Zm0,0" transform="translate(0 -87.059)"/><path class="b" d="M216.1,230.2a15.1,15.1,0,1,1,15.1-15.1A15.115,15.115,0,0,1,216.1,230.2Zm0-24.706a9.608,9.608,0,1,0,9.608,9.608A9.618,9.618,0,0,0,216.1,205.49Zm0,0" transform="translate(-145.824 -145.098)"/><path class="b" d="M248.745,426.424A2.745,2.745,0,0,1,246,423.679V412.7a2.745,2.745,0,0,1,5.49,0v10.98A2.745,2.745,0,0,1,248.745,426.424Zm0,0" transform="translate(-178.471 -297.417)"/><path class="b" d="M302.368,423.209a2.737,2.737,0,0,1-1.942-.8l-7.765-7.763a2.746,2.746,0,0,1,3.883-3.883l7.765,7.765a2.745,2.745,0,0,1-1.941,4.686Zm0,0" transform="translate(-211.74 -297.418)"/><path class="b" d="M174.6,423.21a2.745,2.745,0,0,1-1.941-4.686l7.765-7.765a2.746,2.746,0,0,1,3.883,3.883l-7.765,7.763A2.737,2.737,0,0,1,174.6,423.21Zm0,0" transform="translate(-124.682 -297.419)"/><path class="b" d="M248.745,56.424A2.745,2.745,0,0,1,246,53.679V42.7a2.745,2.745,0,1,1,5.49,0v10.98A2.745,2.745,0,0,1,248.745,56.424Zm0,0" transform="translate(-178.471 -28.986)"/><path class="b" d="M182.368,64.926a2.736,2.736,0,0,1-1.942-.8l-7.765-7.765a2.745,2.745,0,0,1,3.883-3.882l7.765,7.763a2.745,2.745,0,0,1-1.941,4.686Zm0,0" transform="translate(-124.682 -37.487)"/><path class="b" d="M294.6,64.926a2.745,2.745,0,0,1-1.941-4.686l7.765-7.763a2.745,2.745,0,0,1,3.883,3.882l-7.765,7.765A2.74,2.74,0,0,1,294.6,64.926Zm0,0" transform="translate(-211.74 -37.487)"/><path class="b" d="M248.762,5.49a2.745,2.745,0,0,1,0-5.49h0a2.745,2.745,0,1,1,0,5.49Zm0,0" transform="translate(-178.482)"/><path class="b" d="M248.762,495.49a2.745,2.745,0,0,1,0-5.49h0a2.745,2.745,0,1,1,0,5.49Zm0,0" transform="translate(-178.482 -355.49)"/></g></g></svg>