<svg xmlns="http://www.w3.org/2000/svg" width="133.526" height="137.73" viewBox="0 0 133.526 137.73"><defs><style>.a{fill:#ff8f1c;}.b{fill:#1b4d92;}</style></defs><g transform="translate(-12899 -6025.77)"><circle class="a" cx="60" cy="60" r="60" transform="translate(12899 6025.77)"/><path class="b" d="M131.87,122.824,85.808,57.184a6.477,6.477,0,0,0-1.42-1.462V41.579h32.484a3.9,3.9,0,0,0,3.31-5.957l-6.8-10.934,6.8-10.934a3.9,3.9,0,0,0-3.31-5.957H84.388V3.9a3.9,3.9,0,0,0-7.8,0V55.721a6.482,6.482,0,0,0-1.42,1.462l-21.681,30.9L45.132,76.486a6.5,6.5,0,0,0-10.54,0L1.231,122.757a6.5,6.5,0,0,0,5.27,10.3H126.552a6.5,6.5,0,0,0,5.318-10.228Zm-94.944,2.432L62,89.524l6.425,5.986a3.9,3.9,0,0,0,5.315,0l6.748-6.288,6.749,6.288a3.9,3.9,0,0,0,5.314,0l6.426-5.987,25.075,35.732Zm-7.817-2.433a6.5,6.5,0,0,0-1.051,2.433H9.04l30.823-42.75L48.75,94.835ZM80.49,63.177l13.967,19.9L89.9,87.331l-6.75-6.288a3.9,3.9,0,0,0-5.314,0l-6.748,6.288-4.561-4.25Zm29.365-47.585-4.378,7.036a3.9,3.9,0,0,0,0,4.119l4.378,7.036H84.388V15.592Z" transform="translate(12899.474 6030.447)"/></g></svg>