<svg id="Layer_1" data-name="Layer 1" xmlns="http://www.w3.org/2000/svg" xmlns:xlink="http://www.w3.org/1999/xlink" viewBox="0 0 180 168.49"><defs><style>.cls-1{fill:url(#linear-gradient);}.cls-2{fill:#1a335d;}</style><linearGradient id="linear-gradient" x1="-200.77" y1="563.12" x2="-200.77" y2="562.12" gradientTransform="matrix(124, 0, 0, -124, 25014.05, 69826.47)" gradientUnits="userSpaceOnUse"><stop offset="0" stop-color="#ff8f1c"/><stop offset="1" stop-color="#ffda0d"/></linearGradient></defs><g id="Group_137" data-name="Group 137"><circle id="Ellipse_18" data-name="Ellipse 18" class="cls-1" cx="118" cy="62" r="62"/><g id="_006-medicine" data-name=" 006-medicine"><path id="Path_44" data-name="Path 44" class="cls-2" d="M32.69,124.24a2,2,0,0,1-2-2V80.61a11.15,11.15,0,0,1-5.32-.3v41.93a2,2,0,0,1-4,0V77.14a2,2,0,0,1,3.14-1.64,7.34,7.34,0,0,0,7.3.57,2,2,0,0,1,2.88,1.8v44.37A2,2,0,0,1,32.69,124.24Z"/><path id="Path_45" data-name="Path 45" class="cls-2" d="M37.8,69.74a2,2,0,0,1-2-1.63A7.29,7.29,0,0,0,31,62.55a2,2,0,0,1-.74-3.32L48,41.92a2,2,0,0,1,2.83,0,2,2,0,0,1,.52,1,7.39,7.39,0,0,0,4.92,5.45,2,2,0,0,1,1.27,2.52,2,2,0,0,1-.5.81L39.2,69.17A2,2,0,0,1,37.8,69.74Zm-2.73-9.6a11.37,11.37,0,0,1,3.56,4l13.59-13.3a11.43,11.43,0,0,1-3.62-3.92Z"/><path id="Path_46" data-name="Path 46" class="cls-2" d="M88,47.61H66.81a2,2,0,0,1-2-2,2,2,0,0,1,.23-.92,7,7,0,0,0,.78-3.27,7.32,7.32,0,0,0-1.2-4,2,2,0,0,1,1.67-3.1H88a2,2,0,0,1,0,4H69.38a11.4,11.4,0,0,1,.23,5.32H88a2,2,0,0,1,0,4Z"/><path id="Path_47" data-name="Path 47" class="cls-2" d="M58.5,52.74a11.23,11.23,0,0,1-3.5-.55,11.38,11.38,0,0,1-7.58-8.42,11.58,11.58,0,0,1-.25-2.35,11.33,11.33,0,0,1,22.65,0h0a11,11,0,0,1-1.24,5.12,11.21,11.21,0,0,1-10.08,6.2Zm0-18.65a7.34,7.34,0,0,0-7.33,7.33A8.07,8.07,0,0,0,51.34,43a7.31,7.31,0,0,0,7.15,5.78,7.25,7.25,0,0,0,6.53-4,7,7,0,0,0,.8-3.3,7.18,7.18,0,0,0-1.2-4,7.34,7.34,0,0,0-6.12-3.3Z"/><path id="Path_48" data-name="Path 48" class="cls-2" d="M28.65,80.8a11.32,11.32,0,1,1,0-22.64h0a11.8,11.8,0,0,1,3.67.6,11.33,11.33,0,0,1,1.23,20.92,11.24,11.24,0,0,1-4.9,1.13Zm0-18.65A7.33,7.33,0,1,0,36,69.49a7.71,7.71,0,0,0-.13-1.35A7.32,7.32,0,0,0,31,62.56,7.79,7.79,0,0,0,28.65,62.15Z"/><path id="Path_49" data-name="Path 49" class="cls-2" d="M121.58,52.27H91.18A5.16,5.16,0,0,1,86,47.1V33.66a5.16,5.16,0,0,1,5.17-5.17h30.4a5.16,5.16,0,0,1,5.17,5.17V47.1A5.16,5.16,0,0,1,121.58,52.27ZM91.18,32.49A1.17,1.17,0,0,0,90,33.66V47.1a1.17,1.17,0,0,0,1.17,1.17h30.4a1.17,1.17,0,0,0,1.17-1.17V33.66a1.17,1.17,0,0,0-1.17-1.17Z"/><path id="Path_50" data-name="Path 50" class="cls-2" d="M106.38,75.74A14.35,14.35,0,0,1,92,61.39V50.27a2,2,0,0,1,2-2h24.68a2,2,0,0,1,2,2V61.39A14.36,14.36,0,0,1,106.38,75.74ZM96,52.27v9.12a10.34,10.34,0,0,0,20.68,0V52.27Z"/><path id="Path_51" data-name="Path 51" class="cls-2" d="M52.56,168.49H3.5A3.51,3.51,0,0,1,0,165V163.9a13,13,0,0,1,13-13H43.07a13,13,0,0,1,13,13V165a3.5,3.5,0,0,1-3.5,3.5ZM4,164.49H52.06v-.59a9,9,0,0,0-9-9H13a9,9,0,0,0-9,9Z"/><path id="Path_52" data-name="Path 52" class="cls-2" d="M41.92,154.92H14.15a2,2,0,0,1-2-2V129a8.79,8.79,0,0,1,8.78-8.79H35.12a8.8,8.8,0,0,1,8.8,8.79v23.89A2,2,0,0,1,41.92,154.92Zm-25.77-4H39.92V129a4.8,4.8,0,0,0-4.8-4.79H20.93A4.81,4.81,0,0,0,16.14,129Z"/><path id="Path_53" data-name="Path 53" class="cls-2" d="M28,142.31a6.88,6.88,0,1,1,6.87-6.88h0A6.88,6.88,0,0,1,28,142.31Zm0-9.74a2.87,2.87,0,1,0,2.87,2.87h0A2.86,2.86,0,0,0,28,132.57Z"/><path id="Path_54" data-name="Path 54" class="cls-2" d="M91.47,93.09a2,2,0,0,1-1.4-.57L81.29,84a9.06,9.06,0,0,1-2.77-6.93A8.17,8.17,0,0,1,81.58,71c.43-.35,11.15-9.52,11.15-9.52a2,2,0,0,1,2.61,3L84.08,74.1a4.16,4.16,0,0,0-1.56,3.15,5.05,5.05,0,0,0,1.55,3.86l8.8,8.54a2,2,0,0,1-1.41,3.44Z"/><path id="Path_55" data-name="Path 55" class="cls-2" d="M121.29,93.09a2,2,0,0,1-1.4-3.44l8.78-8.53a5.12,5.12,0,0,0,1.56-3.87,4.18,4.18,0,0,0-1.56-3.16l-11.25-9.6a2,2,0,1,1,2.52-3.1l.08.06s10.71,9.17,11.16,9.53a8.15,8.15,0,0,1,3,6.1A9,9,0,0,1,131.45,84l-8.77,8.52A2,2,0,0,1,121.29,93.09Z"/><path id="Path_56" data-name="Path 56" class="cls-2" d="M127.26,168.49H85.5a5.14,5.14,0,0,1-5.13-5.13v-47.6a15.55,15.55,0,0,1,9.54-14.37,5.21,5.21,0,0,0,3.22-4.8,2,2,0,0,1,2-2h22.5a2,2,0,0,1,2,2,5.21,5.21,0,0,0,3.22,4.8,15.55,15.55,0,0,1,9.54,14.37v47.6A5.14,5.14,0,0,1,127.26,168.49ZM96.92,98.59a9.28,9.28,0,0,1-5.46,6.5,11.55,11.55,0,0,0-7.09,10.67v47.6a1.12,1.12,0,0,0,1.13,1.13h41.76a1.13,1.13,0,0,0,1.13-1.13v-47.6a11.55,11.55,0,0,0-7.09-10.67,9.27,9.27,0,0,1-5.45-6.5Z"/><path id="Path_57" data-name="Path 57" class="cls-2" d="M118.17,98.59H94.57a4.79,4.79,0,0,1-4.78-4.79V87.52a4.78,4.78,0,0,1,4.78-4.78h23.6A4.8,4.8,0,0,1,123,87.52V93.8A4.81,4.81,0,0,1,118.17,98.59ZM94.57,86.74a.78.78,0,0,0-.78.78V93.8a.78.78,0,0,0,.78.79h23.6a.79.79,0,0,0,.79-.79V87.52a.78.78,0,0,0-.79-.78Z"/><path id="Path_58" data-name="Path 58" class="cls-2" d="M130.39,153.09h-48a2,2,0,0,1-2-2v-33.2a2,2,0,0,1,2-2h48a2,2,0,0,1,2,2v33.2A2,2,0,0,1,130.39,153.09Zm-46-4h44v-29.2h-44Z"/></g></g></svg>