<svg id="Layer_1" data-name="Layer 1" xmlns="http://www.w3.org/2000/svg" xmlns:xlink="http://www.w3.org/1999/xlink" viewBox="0 0 143.45 140"><defs><style>.cls-1{fill:url(#linear-gradient);}.cls-2{fill:#1a335d;}</style><linearGradient id="linear-gradient" x1="1067.32" y1="1084.45" x2="1068.1" y2="1083.87" gradientTransform="matrix(121, 0, 0, -121, -129132.65, 131262.61)" gradientUnits="userSpaceOnUse"><stop offset="0" stop-color="#6cc24a"/><stop offset="1" stop-color="#0dffa2"/></linearGradient></defs><g id="Component_60_3" data-name="Component 60 3"><g id="Group_231-2" data-name="Group 231-2"><circle id="Ellipse_22-2" data-name="Ellipse 22-2" class="cls-1" cx="60.5" cy="79.5" r="60.5"/><g id="_006-petrol-pump-2" data-name=" 006-petrol-pump-2"><path id="Path_87-2" data-name="Path 87-2" class="cls-2" d="M12.94,123A6.1,6.1,0,0,1,7,116.76V96.47a6.09,6.09,0,0,1,5.94-6.23,6.08,6.08,0,0,1,5.93,6.23v20.29A6.09,6.09,0,0,1,12.94,123Zm0-28.87a2.21,2.21,0,0,0-2,2.34v20.29a2.21,2.21,0,0,0,2,2.34,2.21,2.21,0,0,0,2-2.34V96.47a2.21,2.21,0,0,0-2-2.34Z"/><path id="Path_88-2" data-name="Path 88-2" class="cls-2" d="M100.65,140H49.78a1.94,1.94,0,0,1-1.47-.67L32.88,121.65a2,2,0,0,1-.47-1.28V92.87a2,2,0,0,1,.47-1.29L48.32,73.9a2,2,0,0,1,1.47-.67h50.87a2,2,0,0,1,1.47.67l15.42,17.68a2,2,0,0,1,.48,1.29v27.5a2,2,0,0,1-.48,1.28l-15.43,17.68a1.92,1.92,0,0,1-1.47.67Zm-50-3.9H99.78l14.37-16.46v-26L99.78,77.13H50.67L36.3,93.6v26Z"/><path id="Path_89-2" data-name="Path 89-2" class="cls-2" d="M34.36,117.9H16.92A1.94,1.94,0,0,1,15,116V97.28a1.94,1.94,0,0,1,1.94-2H34.36a1.94,1.94,0,0,1,1.94,2h0V116a1.94,1.94,0,0,1-1.94,2ZM18.87,114H32.41V99.23H18.87Z"/><path id="Path_90-2" data-name="Path 90-2" class="cls-2" d="M133.52,117.9H116.08a1.94,1.94,0,0,1-1.94-2V97.28a1.94,1.94,0,0,1,1.94-2h17.44a2,2,0,0,1,1.95,1.94h0V116a2,2,0,0,1-1.95,2ZM118,114h13.54V99.23H118Z"/><path id="Path_91-2" data-name="Path 91-2" class="cls-2" d="M137.5,123a6.09,6.09,0,0,1-5.93-6.24V96.47a5.94,5.94,0,0,1,11.87-.58,5.61,5.61,0,0,1,0,.58v20.29A6.1,6.1,0,0,1,137.5,123Zm0-28.86a2.21,2.21,0,0,0-2,2.33v20.29a2.06,2.06,0,0,0,4.08.54,2.44,2.44,0,0,0,0-.54V96.47a2.21,2.21,0,0,0-2-2.34Z"/><path id="Path_92-2" data-name="Path 92-2" class="cls-2" d="M87.94,77.13H62.5a2,2,0,0,1-2-1.95h0v-8a2,2,0,0,1,2-2H87.94a1.94,1.94,0,0,1,1.94,2h0v8a1.94,1.94,0,0,1-1.94,1.95Zm-23.49-3.9H86v-4.1H64.45Z"/><path id="Path_93-2" data-name="Path 93-2" class="cls-2" d="M78.83,69.13H71.61a1.94,1.94,0,0,1-1.94-1.95h0V56.48a1.95,1.95,0,1,1,3.9,0v8.75h3.31V56.48a2,2,0,0,1,3.9,0v10.7a2,2,0,0,1-2,1.95Z"/><path id="Path_94-2" data-name="Path 94-2" class="cls-2" d="M75.22,58.64a29.32,29.32,0,1,1,29.32-29.32A29.32,29.32,0,0,1,75.22,58.64Zm0-54.74a25.42,25.42,0,1,0,25.42,25.42A25.42,25.42,0,0,0,75.22,3.9Z"/><path id="Path_95-2" data-name="Path 95-2" class="cls-2" d="M68,37.55a1.94,1.94,0,0,1-2-1.94,1.92,1.92,0,0,1,.67-1.47l6.54-5.7V14.82a2,2,0,1,1,3.9,0v14.5a2,2,0,0,1-.66,1.47l-7.22,6.29a1.94,1.94,0,0,1-1.28.48Z"/><path id="Path_96-2" data-name="Path 96-2" class="cls-2" d="M75.22,10.44a2,2,0,0,1-1.38-3.33,2,2,0,0,1,2.76,0,2,2,0,0,1-1.38,3.33Z"/><path id="Path_97-2" data-name="Path 97-2" class="cls-2" d="M54.38,31.28l-.37,0-.37-.12L53.31,31a1.2,1.2,0,0,1-.29-.26A1.91,1.91,0,0,1,53,28l.05,0a1.16,1.16,0,0,1,.29-.25l.33-.17A2.65,2.65,0,0,1,54,27.4a2.42,2.42,0,0,1,.76,0l.35.12.36.17a3.47,3.47,0,0,1,.29.25,2,2,0,0,1,0,2.75l-.29.26-.36.17-.34.12-.39,0Z"/><path id="Path_98-2" data-name="Path 98-2" class="cls-2" d="M75.22,52.09a1.91,1.91,0,0,1-1.38-.56,1.76,1.76,0,0,1-.41-.63,2.2,2.2,0,0,1-.16-.76,2,2,0,0,1,2-1.94,2.22,2.22,0,0,1,.37,0,1.23,1.23,0,0,1,.37.12,2.55,2.55,0,0,1,.33.17,1.94,1.94,0,0,1,.31.26,2,2,0,0,1,.57,1.36,2.2,2.2,0,0,1-.16.76,1.85,1.85,0,0,1-.41.63,1.19,1.19,0,0,1-.31.23A1.35,1.35,0,0,1,76,52a1.7,1.7,0,0,1-.37.1.94.94,0,0,1-.37,0Z"/><path id="Path_99-2" data-name="Path 99-2" class="cls-2" d="M96.05,31.28a2,2,0,0,1-1.38-.59,1.94,1.94,0,0,1,0-2.75,2,2,0,0,1,2.75,0,1.9,1.9,0,0,1,0,2.75,1,1,0,0,1-.29.25l-.33.18a2.65,2.65,0,0,1-.37.12l-.37,0Z"/></g></g></g></svg>