<svg id="Layer_1" data-name="Layer 1" xmlns="http://www.w3.org/2000/svg" xmlns:xlink="http://www.w3.org/1999/xlink" viewBox="0 0 162 163"><defs><style>.cls-1{fill:url(#linear-gradient);}.cls-2{fill:#1a335d;}</style><linearGradient id="linear-gradient" x1="1071.01" y1="902.01" x2="1071.01" y2="901.01" gradientTransform="matrix(121, 0, 0, -121, -129490.65, 109142.77)" gradientUnits="userSpaceOnUse"><stop offset="0" stop-color="#77e04e"/><stop offset="1" stop-color="#00ff9d"/></linearGradient></defs><g id="Group_229" data-name="Group 229"><circle id="Ellipse_20" data-name="Ellipse 20" class="cls-1" cx="101.5" cy="60.5" r="60.5"/><g id="_007-air-compressor" data-name=" 007-air-compressor"><path id="Path_74" data-name="Path 74" class="cls-2" d="M38.39,68.16a6.78,6.78,0,1,0-6.78-6.77A6.77,6.77,0,0,0,38.39,68.16Zm0-9a2.26,2.26,0,1,1-2.26,2.26h0A2.26,2.26,0,0,1,38.39,59.13Z"/><path id="Path_75" data-name="Path 75" class="cls-2" d="M112.24,46.24l-1.6-1.6V36.55h-4.51v10l2.92,2.92Z"/><path id="Path_76" data-name="Path 76" class="cls-2" d="M126.45,59.13a6.78,6.78,0,0,0,13.55,0h0V54.61a6.78,6.78,0,0,0-13.55,0h-7a15.81,15.81,0,1,0-22.35-.26,15.38,15.38,0,0,0,2.27,1.92V81.71H94.84V79.45a6.76,6.76,0,0,0-3.19-5.72A11.24,11.24,0,0,0,84,54.66L47.42,47.34V41.07h2.26A6.78,6.78,0,0,0,56,36.55h9.44v2.26a6.78,6.78,0,1,0,13.55,0h0v-9a6.78,6.78,0,0,0-13.55,0V32H56a6.76,6.76,0,0,0-6.36-4.51H27.1A6.75,6.75,0,0,0,20.74,32H15.81A6.8,6.8,0,0,0,9,38.81V70.42H4.52V89.29A20.17,20.17,0,0,0,0,102v27.1a20.34,20.34,0,0,0,20.32,20.32H26l-.9,9H20.32V163H51.94v-4.52H47.2l-.9-9H93.7l-.9,9H88.07V163h31.61v-4.52H115l-.9-9h5.63A20.34,20.34,0,0,0,140,129.13V102a20.35,20.35,0,0,0-20.32-20.32h-2.26V59.13ZM131,54.61a2.26,2.26,0,1,1,4.51,0v4.52a2.26,2.26,0,1,1-4.51,0ZM70,29.77a2.26,2.26,0,1,1,4.52,0h0v9a2.26,2.26,0,0,1-4.52,0ZM97.1,43.32a11.29,11.29,0,1,1,11.29,11.29A11.29,11.29,0,0,1,97.1,43.32ZM31.61,81.71V79.45a2.28,2.28,0,0,1,2.26-2.26h54.2a2.27,2.27,0,0,1,2.25,2.26v2.26ZM38.39,50.1A11.29,11.29,0,1,1,27.1,61.39h0A11.31,11.31,0,0,1,38.39,50.1ZM74.57,72.68H49.43a15.75,15.75,0,0,0,2.2-19.89L75.9,57.65a11.13,11.13,0,0,0-1.33,15ZM90.32,65.9a6.77,6.77,0,1,1-6.77-6.77A6.77,6.77,0,0,1,90.32,65.9ZM42.9,46.25a15.6,15.6,0,0,0-9,0V41.07h9ZM27.1,32H49.68a2.26,2.26,0,0,1,0,4.52H27.1a2.26,2.26,0,0,1,0-4.52ZM13.55,38.81a2.26,2.26,0,0,1,2.26-2.26h4.93a6.77,6.77,0,0,0,6.36,4.52h2.26v7.37a15.77,15.77,0,0,0,.06,26,6.73,6.73,0,0,0-2.32,5.06v2.26H20.32a21.06,21.06,0,0,0-2.25.13V70.42H13.55Zm0,36.13v8A20.08,20.08,0,0,0,9,85.15V74.94Zm-9,54.19V102A15.8,15.8,0,0,1,18.07,86.41v58.34A15.8,15.8,0,0,1,4.52,129.13Zm25.07,29.35,1.81-18.06h9.46l1.81,18.06Zm67.74,0,1.81-18.06h9.46l1.81,18.06Zm15.36-22.58H95.05l-.9,9H45.85l-.9-9H27.31l-.9,9H22.58V86.23h94.84v58.71h-3.83ZM135.49,102v27.1a15.82,15.82,0,0,1-13.55,15.63V86.41A15.8,15.8,0,0,1,135.48,102ZM103.87,81.71V58.46a15.6,15.6,0,0,0,9,0V81.71Z"/><path id="Path_77" data-name="Path 77" class="cls-2" d="M99.35,104.29a13.55,13.55,0,1,0,13.56,13.55A13.55,13.55,0,0,0,99.35,104.29Zm2.26,22.26V113.32H97.1v13.23a9,9,0,1,1,4.51,0Z"/><path id="Path_78" data-name="Path 78" class="cls-2" d="M63.23,90.74H31.61a4.52,4.52,0,0,0-4.51,4.52v18.06a4.51,4.51,0,0,0,4.51,4.52H63.23a4.51,4.51,0,0,0,4.51-4.51V95.26A4.52,4.52,0,0,0,63.23,90.74ZM31.61,113.32V95.26H63.23v18.06Z"/><path id="Path_79" data-name="Path 79" class="cls-2" d="M126.45,113.32H131v4.52h-4.52Z"/><path id="Path_80" data-name="Path 80" class="cls-2" d="M126.45,131.39H131v4.51h-4.52Z"/><path id="Path_81" data-name="Path 81" class="cls-2" d="M126.45,122.35H131v4.52h-4.52Z"/><path id="Path_82" data-name="Path 82" class="cls-2" d="M9,104.29h4.52v4.52H9Z"/><path id="Path_83" data-name="Path 83" class="cls-2" d="M9,95.26h4.52v4.51H9Z"/><path id="Path_84" data-name="Path 84" class="cls-2" d="M9,113.32h4.52v4.52H9Z"/></g></g></svg>