<svg id="Layer_1" data-name="Layer 1" xmlns="http://www.w3.org/2000/svg" viewBox="0 0 140 148"><defs><style>.cls-1{fill:#77e04e;}.cls-2{fill:#1a335d;}</style></defs><g id="Component_59_2" data-name="Component 59 2"><g id="Group_230" data-name="Group 230"><circle id="Ellipse_21" data-name="Ellipse 21" class="cls-1" cx="65.5" cy="60.5" r="60.5"/><g id="_010-tap" data-name=" 010-tap"><path id="Path_85" data-name="Path 85" class="cls-2" d="M138.29,109.68l-25.39-6.35v-2.75a2.26,2.26,0,0,0-2.26-2.26H92.58a2.26,2.26,0,0,0-2.26,2.26h0v9H76.77v-9H79a2.26,2.26,0,0,0,2.26-2.26h0V75.74A2.26,2.26,0,0,0,79,73.48H74.82L76.76,58v0s0-.1,0-.15V15.9A7.91,7.91,0,0,0,68.87,8H62.1a7.92,7.92,0,0,0-7.9,7.9V57.7s0,.06,0,.1a.61.61,0,0,0,0,.14v0l1.94,15.53H51.94a2.26,2.26,0,0,0-2.26,2.26h0V98.32a2.26,2.26,0,0,0,2.25,2.26h2.26v9H40.65v-2.26a2.26,2.26,0,0,0-2.26-2.25H31.61V50.9a2.26,2.26,0,0,0-2.25-2.26H2.26A2.26,2.26,0,0,0,0,50.9v94.84A2.26,2.26,0,0,0,2.25,148H29.36a2.26,2.26,0,0,0,2.26-2.26V132.19h6.77a2.26,2.26,0,0,0,2.26-2.25v-2.26H51.17l-5.42,6.11a2.26,2.26,0,0,0,0,3l9.3,10.43a2.24,2.24,0,0,0,1.62.76h.07a2.29,2.29,0,0,0,1.6-.66L78,127.68H90.32v9A2.26,2.26,0,0,0,92.58,139h18.07a2.26,2.26,0,0,0,2.25-2.26V134l25.39-6.35a2.26,2.26,0,0,0,1.71-2.19V111.87a2.27,2.27,0,0,0-1.71-2.19ZM27.1,143.48H4.52V53.16H27.1Zm9-15.8H31.61V109.61h4.52ZM58.71,15.9a3.38,3.38,0,0,1,3.39-3.38h6.77a3.39,3.39,0,0,1,3.39,3.38V55.42H58.71ZM72,59.94,70.27,73.48H60.7L59,59.94ZM54.19,78H76.77V96.07H54.19Zm36.13,45.16H77a2.29,2.29,0,0,0-1.6.66l-18.59,18.6-6.37-7.14,7.41-8.37a2.26,2.26,0,0,0-.19-3.19,2.28,2.28,0,0,0-1.5-.56H40.65v-9h15.8a2.26,2.26,0,0,0,2.26-2.25h0V100.58H72.26v11.29a2.26,2.26,0,0,0,2.26,2.25h15.8Zm18.07,11.29H94.84V102.84h13.55Zm27.1-10.8L112.9,129.3V108l22.58,5.64Z"/><path id="Path_86" data-name="Path 86" class="cls-2" d="M65.48,93.81a2.26,2.26,0,0,0,2.26-2.26v-9a2.26,2.26,0,1,0-4.51,0v9a2.26,2.26,0,0,0,2.25,2.26Z"/></g></g></g></svg>