<svg id="Layer_1" data-name="Layer 1" xmlns="http://www.w3.org/2000/svg" xmlns:xlink="http://www.w3.org/1999/xlink" viewBox="0 0 189 168.49"><defs><style>.cls-1{fill:url(#linear-gradient);}.cls-2{fill:#1a335d;}</style><linearGradient id="linear-gradient" x1="-185.49" y1="1129.68" x2="-185.95" y2="1130.52" gradientTransform="matrix(124, 0, 0, -124, 23090.38, 140193.7)" gradientUnits="userSpaceOnUse"><stop offset="0" stop-color="#ff8f1c"/><stop offset="1" stop-color="#ffda0d"/></linearGradient></defs><g id="Group_135" data-name="Group 135"><g id="Group_134" data-name="Group 134"><circle id="Ellipse_13" data-name="Ellipse 13" class="cls-1" cx="62" cy="62" r="62"/><g id="_010-oil-industry" data-name=" 010-oil-industry"><path id="Path_41" data-name="Path 41" class="cls-2" d="M186.94,164.37h-9a50.13,50.13,0,0,0,3.59-11.14,2.06,2.06,0,0,0-4.05-.78,47,47,0,0,1-4.09,11.92h-8.77V161.2a2.06,2.06,0,1,0-4.11,0h0v3.17h-8.77A44,44,0,0,1,147,145.73a39.38,39.38,0,0,1,1.1-10.09h29.07a40,40,0,0,1,1.11,9,2.06,2.06,0,0,0,2.06,2h0a2.07,2.07,0,0,0,2-2.07h0a44.72,44.72,0,0,0-1.06-9.22,2.06,2.06,0,0,0-1-3.86h0a53.22,53.22,0,0,0-2.88-7.3,5.09,5.09,0,0,0-4.12-2.84v-3.22a4.56,4.56,0,0,0-4.49-4.55V38.41A10.42,10.42,0,0,0,158.37,28H81.21A10.43,10.43,0,0,0,70.8,38.41v4.3H64.33a4.68,4.68,0,0,0-4.67,4.67V53.5a2.07,2.07,0,0,0,0,3.58v51.15A32.06,32.06,0,0,0,54,126.41v5.67H52.66a2.06,2.06,0,0,0,0,4.12H54v11.1a2.06,2.06,0,0,0,4.12,0h0V136.2h56.05v28.17H96.34V153a3.69,3.69,0,0,0-3.68-3.68h-13A3.68,3.68,0,0,0,76,153v11.34H58.13v-8.85a2.06,2.06,0,0,0-4.12,0h0v8.85H50.57a2.06,2.06,0,0,0,0,4.12H186.94a2.06,2.06,0,0,0,0-4.12ZM80.08,153.47H92.22v10.9H80.09ZM156.9,113.6h-.43a4.56,4.56,0,0,0-4.56,4.56v3.22a5.09,5.09,0,0,0-4.12,2.84,53.22,53.22,0,0,0-2.88,7.3h0a2.06,2.06,0,0,0-1,3.86q-.46,2.1-.72,4.2h-7.91V68.05a2.05,2.05,0,0,0,.78-2.8,2.13,2.13,0,0,0-.78-.77V58.36a4.67,4.67,0,0,0-4.67-4.67h-6.13V48.26a3.71,3.71,0,0,1,3.71-3.71h25a3.71,3.71,0,0,1,3.71,3.71ZM113.65,68.33h17.5V83h-17.5Zm0,18.77h17.5v14.74h-17.5Zm16.94-29.29a.56.56,0,0,1,.56.55h0v5.85h-17.5V58.36a.54.54,0,0,1,.55-.55h16.39ZM109.53,82.6H85.46V79.77h24.07ZM81.28,64.13H76.64a2.06,2.06,0,1,0,0,4.11h4.64V83H63.78V68.24h4.63a2.06,2.06,0,1,0,0-4.11H63.78V57.35h17.5Zm0,23v7.54a32,32,0,0,0-17.5,8.72V87.1Zm4.11-.39H109.5c0,.42,0,18.84,0,17.67A32,32,0,0,0,86.15,94.27h-.76V86.71ZM113.65,106h17.5v19H118.26a32,32,0,0,0-4.61-15.2Zm6,30.25a2.06,2.06,0,1,0,0-4.12H118.3v-3h12.85v10.49H118.3V136.2Zm-1.34,7.5h24.56c0,1,0,1.92,0,2.88H118.3Zm24.93,7a48.68,48.68,0,0,0,4,13.67h-12V150.7ZM173.68,126a49.15,49.15,0,0,1,2.26,5.52h-26.7A47.34,47.34,0,0,1,151.5,126a1,1,0,0,1,.88-.54h20.41a1,1,0,0,1,.89.54Zm-4.53-7.84v3.18H156v-3.19a.44.44,0,0,1,.44-.44H168.7a.45.45,0,0,1,.45.44ZM74.91,38.41a6.3,6.3,0,0,1,6.3-6.3h77.16a6.3,6.3,0,0,1,6.3,6.3h0V113.6H161V48.26a7.83,7.83,0,0,0-7.82-7.83h-25a7.84,7.84,0,0,0-7.83,7.83v5.43H114.2a4.68,4.68,0,0,0-4.67,4.67v6.12a2.06,2.06,0,0,0-.77,2.8,2.13,2.13,0,0,0,.77.78v7.59H85.46c0-14.52.06,6.77-.07-18.57a2.06,2.06,0,0,0,.77-2.81,2,2,0,0,0-.77-.77V47.39a4.67,4.67,0,0,0-4.67-4.67H74.91ZM64.33,46.83H80.72a.56.56,0,0,1,.56.56h0v5.84H63.78V47.39a.55.55,0,0,1,.55-.56Zm-6.2,85.25v-5.67a28,28,0,0,1,56.05,0v5.67ZM118.3,150.7h12.85v13.68H118.3Z"/><path id="Path_42" data-name="Path 42" class="cls-2" d="M86.15,108.53c-2,0-3.77,1.41-5.12,4a13.56,13.56,0,0,0-1.61,5.77,6.73,6.73,0,1,0,13.46,0h0a13.55,13.55,0,0,0-1.6-5.77C89.92,109.93,88.1,108.53,86.15,108.53Zm0,12.35a2.61,2.61,0,0,1-2.61-2.62c0-2.23,1.8-5.48,2.6-5.61.83.13,2.63,3.38,2.63,5.61a2.64,2.64,0,0,1-2.62,2.62Z"/></g></g></g></svg>